<?xml version="1.0" encoding="UTF-8" standalone="no"?>
<!-- Created with Inkscape (http://www.inkscape.org/) -->
<svg id="svg4274" xmlns:rdf="http://www.w3.org/1999/02/22-rdf-syntax-ns#" xmlns="http://www.w3.org/2000/svg" height="177.54" width="500" version="1.1" xmlns:cc="http://creativecommons.org/ns#" xmlns:dc="http://purl.org/dc/elements/1.1/">
 <metadata id="metadata4279">
  <rdf:RDF>
   <cc:Work rdf:about="">
    <dc:format>image/svg+xml</dc:format>
    <dc:type rdf:resource="http://purl.org/dc/dcmitype/StillImage"/>
    <dc:title/>
   </cc:Work>
  </rdf:RDF>
 </metadata>
 <g id="layer1" transform="translate(0.30165949,-33.702682)">
  <g id="g4208" transform="matrix(0.08669895,0,0,0.0866988,-7.1582267,22.467093)">
   <g id="g4189">
    <g id="g4176">
     <g id="g4165">
      <g id="g4155">
       <g id="g4102" transform="matrix(2.0384601,0,0,2.0384601,6305.2012,-3195.3769)" fill="#000">
        <path id="path4104" d="m-2213.2,2244.3c-14.736-4.0958-22.315-12.417-29.3-19.256l-2.2003-4.1126-0.293-85c-0.222-64.39,0-86.067,0.922-89.4,1.5733-5.6973,10.215-14.527,18.371-18.772,12.626-6.5712,6.0681-6.3273,170.11-6.3273h148.39v27.496,27.496l-137.75,0.2536-137.75,0.2535-0.2583,56.25-0.2583,56.25h109.01,109.01v-15-15l-40.75-0.01c-22.412,0-43.509-0.4554-46.882-1.0028-12.56-2.0387-24.32-9.5552-26.343-16.838-0.5579-2.0083-1.0168-9.839-1.0199-17.402l-0.01-13.748h86.5,86.5l-0.022,55.25c-0.02,51.278-0.1528,55.538-1.843,59.259-2.2853,5.0305-7.4622,9.6182-15.342,13.596-13.608,6.8694-1.2382,6.3308-150.29,6.5437-85.039,0.1214-136.3-0.1673-138.5-0.7801z"/>
        <path id="path4106" d="m-1854.2,2187.5c0-38.324,0.3581-58.877,1.0581-60.718,1.835-4.8264,7.7482-11.084,14.207-15.034l6.2349-3.8132,126.25-0.2651,126.25-0.265v-15.485-15.485h-137-137v-27.5-27.5h149.93c98.806,0,152.59,0.3571,157.75,1.0472,10.876,1.4559,16.956,3.6271,21.4,7.642,7.0889,6.4044,7.0345,5.9153,6.7108,60.311-0.2829,47.559-0.3306,48.578-2.4538,52.5-2.9748,5.4956-8.8662,10.932-14.835,13.69l-5,2.3101-125.5,0.5-125.5,0.5v14.5,14.5l136.25,0.2536,136.25,0.2535v27.996,27.996h-167.5-167.5z"/>
        <path id="path4108" d="m-1198.2,2202.9,0-42.481-124.25-0.269-124.25-0.269-5.9748-2.4059c-7.551-3.0406-15.252-10.227-19.102-17.826l-2.9228-5.7684-0.2893-56.25-0.2892-56.25h30.528,30.528l0.2611,41.25,0.2611,41.25h107,107l0.2611-41.25,0.2611-41.25h29.489,29.489v112,112h-29-29z"/>
        <path id="path4110" d="m-1071.2,2216.9,0-27.5,30,0,30,0,0,27.5,0,27.5-30,0-30,0z"/>
        <path id="path4112" d="m-416.43,2159.1-0.2556-85.25-69.75-0.2568-69.75-0.2568,0-25.493,0-25.493,165.5,0,165.5,0,0,25.5,0,25.5-67.5,0-67.5,0,0,85.5,0,85.5-27.994,0-27.994,0z"/>
        <path id="path4114" d="m4491.6,926.19-17.344,4.6562c-9.5298,2.5646-21.925,6.5773-27.531,8.9062-16.552,6.8761-36.912,21.521-44.719,32.156-14.278,19.45-13.375,4.5988-13.375,214.09v189.66h68.281,68.25l0.5313-59.625,0.5312-59.625,210.5-0.5312,210.47-0.5v60.125,60.156h68.312,68.344l-0.5625-187.03-0.5625-187.03-5.875-11.188c-3.2407-6.1594-11.965-17.239-19.375-24.594-16.02-15.9-39.051-27.975-66.75-35.031l-18.062-4.5938h-240.53-240.53zm35.656,111.09,210.97,0,211,0,0,49.938,0,49.937-211,0-210.97,0,0-49.937,0-49.938z" transform="matrix(0.49056638,0,0,0.49056638,-3093.1198,1567.5445)"/>
       </g>
      </g>
     </g>
    </g>
   </g>
   <g id="g4201" fill="#000">
    <path id="path4120" d="m810.19,129.59c-0.4108-0.1378-36.977,35.975-81.25,80.25l-80.5,80.5h64.25,64.25v82.438,82.469l-191.75,0.34375-191.75,0.34375-17,3.125c-17.195,3.147-45.143,10.961-58.031,16.25-3.8652,1.5861-9.2116,3.6476-11.906,4.5625-6.6736,2.2657-28.872,13.188-41.062,20.219-11.152,6.432-32.337,20.696-37.094,24.969-1.7009,1.5279-7.5111,6.3812-12.938,10.781-17.985,14.583-37.776,34.165-52,51.5-4.7386,5.775-9.5873,11.625-10.812,13-1.2253,1.375-3.3169,4.075-4.625,6-1.308,1.925-4.6982,6.65-7.5312,10.5-19.933,27.088-42.233,74.813-50.469,107.97-5.5405,22.305-6.9665,29.254-8.75,43.031-1.3726,10.603-1.6036,54.021-1.9688,373-0.4166,363.93-0.2674,382.35,3.125,407.56,1.5376,11.427,9.5088,45.318,12.562,53.438,9.2688,24.646,22.588,53.19,30.562,65.5,2.316,3.5749,7.6489,11.838,11.875,18.375,16.325,25.252,42.67,54.982,72.188,81.437,5.0223,4.5012,9.5974,8.1876,10.156,8.1876,0.559,0,4.1062,2.3992,7.875,5.3437,12.502,9.7682,27.995,20.425,35.969,24.719,4.3288,2.3312,9.4894,5.2538,11.469,6.5,7.577,4.7706,30.716,15.775,42.094,20.031,16.579,6.2018,24.961,8.7346,42.812,12.875,31.448,7.2935,18.343,6.8781,228.75,7.25l189.25,0.3437v81.969,81.969h-64.25-64.25l80.5,80.5c44.272,44.275,80.722,80.5,81,80.5,0.2781,0,25.704-25.2,56.5-56s56.466-56,57.031-56c0.5656,0,4.3712-3.375,8.4688-7.5,4.0975-4.125,7.0302-7.5,6.5-7.5-0.5302-0.0001,6.6663-7.6541,16-17l16.969-17-63.969-0.25-64-0.25-0.25-81.719-0.25-81.719,193.25-0.3124c192.7-0.3255,193.29-0.3484,205.75-2.5,26.555-4.5843,50.612-10.814,68.719-17.813,27.9-10.783,63.427-30.577,85.156-47.437,4.6073-3.5751,9.5592-7.3905,11-8.4688,19.531-14.616,48.086-44.359,67.219-70.031,37.986-50.97,61.319-111.53,66.906-173.66,0.7977-8.8725,1.0137-116.11,0.7813-380.34-0.302-343.42-0.4315-368.91-2.0626-381.38-2.2228-16.989-8.8209-42.616-14.781-57.375-1.055-2.6125-2.891-7.1125-4.0625-10-3.1074-7.659-18.781-40.081-19.688-40.719-0.4249-0.29881-2.966-4.3562-5.6562-9.0312-4.7993-8.3399-12.29-20.013-13.469-21-0.3285-0.275-4.3629-5.9-8.9688-12.5-23.653-33.895-62.777-73.04-102.41-102.44-5.2473-3.8925-9.781-7.0625-10.062-7.0625-0.2815,0-6.0451-3.633-12.812-8.0625-28.502-18.655-72.43-36.517-106.31-43.219l-16-3.1562-191.5-0.53125-191.5-0.53125-0.25-82.25-0.25-82.25,64.188-0.25,64.219-0.25-80.219-80c-44.109-44-80.527-80.112-80.938-80.25zm0.9375,374.81c193.81-0.005,387.35,0.28585,397.94,0.90625,20.593,1.2069,30.28,3.0071,49.156,9.0625,16.959,5.4405,33.814,12.666,48.469,20.812,5.0888,2.8288,9.5164,5.1562,9.8437,5.1562,0.9337,0,24.89,16.591,35.406,24.531,16.652,12.572,50.27,44.77,63.156,60.469,2.9345,3.575,6.0696,7.175,6.9687,8,1.4818,1.3597,4.7784,5.702,14.812,19.625,8.7538,12.146,22.828,34.97,28.312,45.875,10.536,20.949,22.186,52.816,25.406,69.5,1.7546,9.0907,1.8748,25.572,2.1562,382.5,0.2108,267.35-0.021,375.83-0.8125,383-3.5626,32.25-13.789,66.937-28.281,96-8.309,16.663-25.498,43.05-38.5,59.094-9.8463,12.15-25.233,28.214-36.937,38.562-12.747,11.27-36.204,28.353-50.25,36.625-15.294,9.0077-49.75,24.274-61.531,27.25-1.65,0.4168-7.275,1.9309-12.5,3.375-11.174,3.0883-30.326,6.0673-48.375,7.5312-11.88,0.9638-793.42,1.2972-805.62,0.3438-20.203-1.5782-44.911-6.5629-62.656-12.656-41.489-14.246-82.372-39.407-118.88-73.125-28.264-26.108-59.654-68.856-73.031-99.5-2.0408-4.6751-4.1129-8.7637-4.625-9.0938s-3.8244-9.0068-7.3438-19.25c-6.6579-19.378-11.302-39.838-13.406-59.156-1.5371-14.119-1.5074-728.8,0.0312-749.38,0.6162-8.2387,2.3417-20.312,3.9375-27.625,2.8568-13.091,11.415-42.123,12.969-44,0.4599-0.55549,2.4932-4.825,4.5312-9.5,7.3799-16.928,14.84-31.277,21.719-41.781,11.651-17.791,13.59-20.61,15.969-23.219,1.2553-1.3765,4.9723-5.8765,8.25-10,17.511-22.03,39.704-43.245,65.531-62.625,13.992-10.499,21.477-15.377,34.094-22.156,40.854-21.952,74.913-32.114,114.53-34.219,11.689-0.62095,205.75-0.93271,399.56-0.9375z"/>
    <path id="path4124" d="m1049.6,1620.1c-2.0675-17.738-4.8555-41.25-6.1955-52.25s-3.3315-27.65-4.4255-37-3.0981-26.45-4.4537-38c-1.3555-11.55-3.8319-32.7-5.5031-47s-3.4838-29.15-4.028-33c-0.5443-3.85-1.7255-13.75-2.6249-22s-1.9229-17.475-2.2743-20.5l-0.6391-5.5-44.141-0.5-44.141-0.5,12.936-32c7.115-17.6,16.688-41.225,21.272-52.5,4.5849-11.275,14.963-36.925,23.062-57,8.0994-20.075,15.538-38.3,16.531-40.501,0.9923-2.2005,3.6158-8.7255,5.8298-14.5,2.2141-5.7745,6.7315-17.141,10.039-25.26l6.013-14.761-3.5097-15.739c-1.9303-8.6567-4.6545-20.914-6.0537-27.239s-3.1729-14.2-3.9416-17.5-2.296-10.05-3.3941-15c-2.4754-11.158-4.396-19.519-7.0061-30.5-1.1113-4.675-3.1955-13.9-4.6318-20.5-1.4362-6.6-2.9009-12.545-3.2549-13.21-0.354-0.6658-6.7894,16.884-14.301,39-14.536,42.797-30.456,89.326-47.289,138.21l-10.33,30-30.267,0.7437c-16.647,0.409-30.416,0.5949-30.597,0.413-0.3024-0.3024,12.379-40.771,23.082-73.657,2.4165-7.425,6.678-20.7,9.4701-29.5s10.743-33.775,17.669-55.5,13.651-42.875,14.945-47c2.2712-7.2425,10.094-31.851,22.729-71.5,3.33-10.45,9.1777-28.563,12.995-40.25l6.94-21.25h137.35,137.35l4.6361,14.25c2.5499,7.8375,11.614,35.85,20.143,62.25,8.5287,26.4,20.627,63.75,26.885,83,6.2581,19.25,14.054,43.325,17.323,53.5,3.2697,10.175,11.44,35.375,18.156,56,14.019,43.053,22.001,68.17,22.005,69.25,0,0.4125-14.11,0.75-31.359,0.75h-31.362l-15.775-46.75c-27.028-80.098-46.477-137.23-51.278-150.63l-4.614-12.878-2.8701,12.878c-1.5786,7.0828-4.6252,20.528-6.7703,29.878s-6.2211,27.35-9.0578,40c-2.8366,12.65-5.7366,25.475-6.4443,28.5s-2.5244,10.948-4.0371,17.606l-2.7502,12.106,6.746,16.894c3.7103,9.2915,7.3677,18.244,8.1275,19.894,0.7597,1.65,8.0776,19.65,16.262,40,26.255,65.282,44.318,109.92,45.728,113,2.3519,5.1408,18.458,45.915,18.458,46.729,0,0.4243-19.76,0.7714-43.91,0.7714h-43.91l-0.6597,8.75c-0.3628,4.8125-1.7355,16.625-3.0504,26.25s-3.7789,29.65-5.4756,44.5c-2.9651,25.952-5.1368,44.203-10.531,88.5-3.837,31.512-9.3223,78.353-11.74,100.25l-2.1803,19.75h-54.07-54.07z"/>
    <path id="path4126" d="m369.34,1645.1c0.3624-2.8875,2.6857-17.625,5.163-32.75,2.4772-15.125,6.0487-36.95,7.9367-48.5,5.8928-36.051,13.254-80.993,17.443-106.5,2.2133-13.475,4.4819-27.875,5.0415-32,0.5595-4.125,1.6861-11.1,2.5037-15.5,0.8175-4.4,4.6542-27.8,8.526-52s8.8123-54.8,10.979-68c2.1665-13.2,5.5308-33.9,7.4762-46,1.9453-12.1,5.4203-33.163,7.7222-46.808l4.1851-24.808-1.607-9.6925c-0.8839-5.3308-7.5345-44.792-14.779-87.692-7.2447-42.9-14.402-85.533-15.906-94.74-1.5034-9.2073-2.9608-16.968-3.2387-17.246-0.2779-0.2779-1.9809,5.9052-3.7846,13.74-4.0637,17.653-12.347,53.161-23.385,100.25-4.6417,19.8-10.727,45.9-13.523,58-5.5761,24.134-21.844,93.427-25.472,108.5l-2.2868,9.5-37.269,0.2622c-35.194,0.2477-37.24,0.1641-36.745-1.5,0.2885-0.9692,3.6841-17.287,7.5457-36.262,3.8615-18.975,13.347-65.325,21.079-103,7.7319-37.675,19.669-95.95,26.527-129.5,20.05-98.083,25.346-123.86,25.943-126.25l0.5612-2.25h186.29,186.29l2.3237,10.75c1.278,5.9125,3.8615,17.5,5.7411,25.75s4.7753,21.525,6.4349,29.5,4.541,21.025,6.4031,29c1.862,7.975,3.6559,16.075,3.9864,18s2.8059,13.4,5.501,25.5c2.695,12.1,7.8574,35.5,11.472,52,3.6145,16.5,8.1222,36.975,10.017,45.5s4.5641,20.9,5.9319,27.5,4.2887,19.875,6.4909,29.5,4.6686,20.65,5.4809,24.5c2.4581,11.651,8.1837,37.811,13.022,59.5,2.5154,11.275,4.5732,20.843,4.573,21.262-0.0002,0.4192-16.742,0.6442-37.205,0.5l-37.204-0.2622-1.8016-9c-4.6106-23.032-59.013-278.23-59.675-279.92-0.5124-1.3153-1.2927,1.2151-2.467,8-2.6416,15.262-11.018,65.488-16.666,99.924-2.7961,17.05-7.7718,46.61-11.057,65.689l-5.9734,34.689,2.1026,13.311c3.9592,25.065,12.093,78.79,16.928,111.81,0.5235,3.575,2.5618,17.075,4.5296,30,1.9679,12.925,7.6062,50.725,12.53,84,4.9235,33.275,9.8467,66.125,10.94,73,1.0938,6.875,4.6985,30.95,8.0106,53.5s6.6877,45.05,7.5014,50,3.0697,19.8,5.0134,33,3.7853,25.238,4.0924,26.75l0.5585,2.75h-49.012c-45.812,0-49.046-0.1142-49.535-1.75-0.28739-0.9625-1.475-7.15-2.6392-13.75s-2.9567-16.5-3.9833-22-3.4686-19-5.4266-30c-8.5516-48.043-13.999-78.682-18.135-102-2.439-13.75-6.2623-35.125-8.4962-47.5s-4.9318-27.388-5.9952-33.362c-1.0634-5.9743-3.9989-22.399-6.5234-36.5-4.7249-26.391-8.8376-49.719-14.521-82.37-1.7935-10.303-3.3871-18.606-3.5413-18.452-0.6193,0.6193-15.833,77.709-30.823,156.18-5.9431,31.114-13.888,72.168-17.514,90.5-1.5775,7.975-4.4648,22.825-6.4164,33-1.9515,10.175-5.7767,29.975-8.5006,44-2.7238,14.025-6.6245,34.162-8.6683,44.75l-3.716,19.25h-48.985-48.985z"/>
    <path id="path4128" d="m517.44,819.32c-24.438-4.8607-48.309-22.641-59.008-43.95-3.1619-6.298-7.1646-16.643-8.0207-20.729-3.7572-17.935-0.9481-41.452,6.7854-56.806,12.341-24.503,29.718-38.619,56.068-45.549,14.702-3.8663,26.205-4.0041,40.296-0.48293,30.005,7.4978,52.163,27.772,62.04,56.764,3.7867,11.115,3.8372,11.463,3.7436,25.767-0.10335,15.806-1.804,24.216-7.4084,36.637-10.72,23.76-34.056,42.453-59.811,47.911-7.1582,1.5171-27.939,1.7789-34.686,0.43696z"/>
    <path id="path4130" d="m1093.4,819.18c-27.661-5.1849-48.079-19.924-61.159-44.147-10.253-18.987-12.973-40.036-7.7834-60.237,3.189-12.415,6.8333-20.366,13.984-30.514,7.1706-10.175,15.952-17.882,27.896-24.481,13.459-7.4368,25.69-10.551,41.3-10.515,14.877,0.0339,26.264,2.9144,40.568,10.262,11.848,6.0859,22.296,15.341,29.685,26.294,6.3984,9.4851,8.2318,13.311,11.979,25,3.159,9.8531,3.1996,10.228,2.7619,25.5-0.3964,13.829-0.7682,16.489-3.4495,24.675-11.787,35.986-44.716,59.703-82.217,59.213-4.7114-0.0615-10.816-0.5336-13.566-1.0491z"/>
   </g>
  </g>
 </g>
</svg>
